<svg width="102" height="12" viewBox="0 0 102 12" fill="none" xmlns="http://www.w3.org/2000/svg">
<path d="M9.05867 10.0858C9.04689 10.0819 9.03564 10.0765 9.02457 10.0698L6.32082 8.38946C6.31836 8.3877 6.31572 8.38611 6.31361 8.38488C6.31063 8.38364 6.30817 8.38188 6.30518 8.3803L6.30131 8.37783L3.45187 8.40637C3.39808 8.40672 3.35028 8.38188 3.31917 8.34277C3.30774 8.33943 3.29649 8.3352 3.2856 8.32938C3.26925 8.32058 3.25501 8.30965 3.24271 8.29662C3.23181 8.29327 3.22127 8.28869 3.21125 8.28323L2.22892 7.7364C2.22259 7.73341 2.21679 7.73006 2.21046 7.72636L2.20712 7.72425L0.116971 6.56119C0.100977 6.55238 0.08674 6.54093 0.0749643 6.52789C-0.000964764 6.47733 -0.0229359 6.37516 0.0262797 6.29799C0.518435 5.5227 1.22868 4.87647 2.08021 4.42904C2.90119 3.99761 3.85279 3.75098 4.86621 3.75098C5.33866 3.75098 5.79775 3.80436 6.23609 3.90548C6.23907 3.88646 6.24575 3.86761 6.25577 3.84999C6.68287 3.09828 7.30312 2.47059 8.04855 2.03579C8.76883 1.61563 9.60579 1.375 10.4981 1.375C11.3856 1.375 12.2183 1.61283 12.936 2.02876C13.6784 2.45896 14.2974 3.07979 14.7266 3.82532L14.727 3.82655C15.1767 3.71997 15.648 3.66324 16.1338 3.66324C17.1476 3.66324 18.0992 3.90988 18.9198 4.34131C19.7715 4.78877 20.4816 5.43478 20.9737 6.21025C21.0229 6.28777 21.001 6.38995 20.925 6.44015C20.9133 6.45319 20.899 6.46411 20.883 6.47345L18.7929 7.63651L18.7895 7.63862C18.7837 7.6425 18.7774 7.64584 18.7711 7.64866L17.7888 8.19549C17.7787 8.2013 17.7678 8.20553 17.7573 8.20888C17.7452 8.22191 17.7308 8.23284 17.7144 8.24164C17.6863 8.2568 17.656 8.26314 17.6262 8.26138L14.7138 8.2908C14.7029 8.31105 14.6872 8.32902 14.6681 8.34382C14.6567 8.35721 14.6433 8.36902 14.6273 8.3787L12.8073 9.49545C12.804 9.49756 12.801 9.49967 12.7976 9.50126L11.9389 10.0278C11.9301 10.0333 11.9213 10.0375 11.912 10.0412C11.8981 10.0564 11.8817 10.0691 11.8624 10.0782C11.7793 10.1191 11.6793 10.0846 11.6385 10.0012C11.5327 9.78437 11.3671 9.60133 11.1631 9.4738C10.9666 9.35084 10.7335 9.27984 10.4839 9.27984C10.2285 9.27984 9.99126 9.35401 9.79265 9.48138C9.58683 9.61315 9.42144 9.80253 9.31773 10.0273C9.27906 10.1115 9.17958 10.1485 9.09522 10.1094C9.08133 10.1031 9.06868 10.0951 9.05743 10.0854L9.05867 10.0858ZM6.63596 8.19041L7.25621 8.57604C7.58049 8.04771 8.02972 7.60538 8.56228 7.29054C9.1263 6.95723 9.78399 6.76573 10.4853 6.76573C11.1817 6.76573 11.8342 6.95388 12.3948 7.28261C12.9256 7.59372 13.375 8.03098 13.7008 8.55417L14.3434 8.16026C13.9487 7.52639 13.4024 6.9963 12.7552 6.62144C12.0879 6.2351 11.3127 6.01364 10.4855 6.01364C9.65305 6.01364 8.87374 6.23755 8.2039 6.62811C7.56308 7.00194 7.02174 7.52797 6.62943 8.15724C6.63277 8.16781 6.63523 8.17873 6.63664 8.19053L6.63596 8.19041ZM7.54058 8.75239L8.18019 9.14983C8.40656 8.77987 8.71909 8.46788 9.08976 8.24361C9.49753 7.99644 9.97508 7.85463 10.4856 7.85463V7.85551C10.9808 7.85251 11.4474 7.9894 11.851 8.23057C12.2192 8.45078 12.535 8.75751 12.7723 9.12461L13.4165 8.72929C13.12 8.25485 12.711 7.85708 12.2264 7.57345C11.7153 7.27414 11.1207 7.10289 10.4862 7.10289C9.84622 7.10289 9.24724 7.27712 8.73417 7.58031C8.24696 7.86816 7.83674 8.27194 7.54144 8.75306L7.54058 8.75239ZM8.46491 9.32686L9.10204 9.72289C9.23053 9.51166 9.40611 9.33232 9.6144 9.19879C9.86645 9.03707 10.1654 8.94334 10.4853 8.94334C10.7994 8.94334 11.0929 9.03337 11.3416 9.18875C11.5453 9.31629 11.7188 9.48753 11.8485 9.69047L12.4863 9.29903C12.2772 8.97822 12.0005 8.71008 11.6787 8.51773C11.326 8.30686 10.9185 8.18724 10.486 8.19024L10.4851 8.19112C10.0375 8.19112 9.61915 8.31531 9.26216 8.53165C8.93665 8.72861 8.66246 9.00221 8.46422 9.3267L8.46491 9.32686ZM3.63875 8.06919L6.07446 8.0447C5.9669 7.91416 5.83384 7.80141 5.68146 7.71297C5.44717 7.57662 5.16735 7.49752 4.86629 7.49752C4.57101 7.49752 4.29683 7.57327 4.06551 7.7047C3.89801 7.79983 3.75265 7.92403 3.63841 8.06919L3.63875 8.06919ZM14.9302 7.95309L17.3194 7.92913C17.2127 7.80617 17.0825 7.70064 16.9355 7.61732C16.7041 7.48607 16.4299 7.41014 16.1348 7.41014C15.8337 7.41014 15.5544 7.48924 15.3196 7.62559C15.1688 7.71315 15.037 7.8243 14.9299 7.95344L14.9302 7.95309ZM0.403158 6.33589L1.17635 6.76609C1.55143 6.21291 2.07166 5.75046 2.68859 5.42246C3.32905 5.08228 4.07322 4.88745 4.8668 4.88745C5.51644 4.88745 6.13332 5.01834 6.6882 5.25317C7.25554 5.49311 7.75579 5.84122 8.15755 6.26808C8.42418 6.12292 8.70559 6.00172 8.99909 5.90729C8.52665 5.36258 7.92605 4.91389 7.23831 4.5982C6.52648 4.27159 5.72094 4.08714 4.86675 4.08714C3.9071 4.08714 3.00841 4.3195 2.23527 4.72574C1.48862 5.11807 0.858193 5.67246 0.402618 6.33537L0.403158 6.33589ZM1.47107 6.93029L2.24584 7.36138C2.51967 6.97028 2.88666 6.64421 3.31587 6.41132C3.77441 6.16292 4.30436 6.02199 4.86716 6.02498V6.0241C5.32782 6.0241 5.76634 6.11712 6.16058 6.28377C6.5499 6.44831 6.89544 6.68491 7.17594 6.9742C7.38808 6.77812 7.61728 6.60036 7.86122 6.44374C7.50003 6.07467 7.05693 5.77325 6.55848 5.56237C6.04576 5.34551 5.47243 5.2243 4.86693 5.2243C4.12875 5.2243 3.4378 5.40488 2.84481 5.72021C2.28588 6.01688 1.8138 6.43332 1.47071 6.93031L1.47107 6.93029ZM2.54074 7.52555L3.3088 7.95276C3.45872 7.73396 3.66155 7.54864 3.9013 7.41261C4.18269 7.253 4.51363 7.16087 4.86711 7.16087C5.2283 7.16087 5.56544 7.25688 5.85016 7.4223C6.06512 7.54738 6.25002 7.71228 6.3924 7.90554C6.55322 7.65767 6.73584 7.42478 6.93796 7.21056C6.68768 6.95177 6.37904 6.74036 6.03086 6.59311C5.67846 6.44408 5.28422 6.36075 4.86716 6.36075L4.86628 6.35987C4.36184 6.35687 3.88606 6.48354 3.47409 6.70674C3.10165 6.90828 2.78193 7.18962 2.54062 7.52507L2.54074 7.52555ZM7.58963 4.39645C7.81513 4.51131 8.03149 4.64009 8.23643 4.78208C8.4716 4.42129 8.79077 4.12003 9.16585 3.90617C9.55973 3.68173 10.0149 3.55348 10.4992 3.55348V3.55436C10.9583 3.5519 11.3924 3.66923 11.775 3.87851C12.148 4.08269 12.4714 4.37388 12.7203 4.72588C12.9252 4.58142 13.141 4.45017 13.3674 4.33232C13.0583 3.87217 12.6423 3.49041 12.1547 3.22315C11.6638 2.95415 11.0998 2.8014 10.4992 2.8014C9.87717 2.8014 9.29399 2.96559 8.79077 3.25312C8.3041 3.53129 7.89123 3.92487 7.58927 4.39629L7.58963 4.39645ZM8.50676 4.98062C8.70924 5.13882 8.89906 5.31058 9.07446 5.49326C9.20541 5.25085 9.39663 5.04579 9.62794 4.89727C9.87999 4.73555 10.179 4.64183 10.4988 4.64183C10.8129 4.64183 11.1064 4.73185 11.3551 4.88723C11.5755 5.02535 11.7608 5.21508 11.8935 5.44042C12.0661 5.25738 12.2526 5.08561 12.4515 4.92651C12.2315 4.61205 11.945 4.35272 11.6145 4.17214C11.2802 3.9891 10.9006 3.8864 10.4995 3.88887L10.4986 3.88975C10.0733 3.88975 9.67467 4.00179 9.33069 4.19786C8.99674 4.38813 8.7134 4.65747 8.50638 4.98042L8.50676 4.98062ZM9.31262 5.7593C9.3265 5.77568 9.33986 5.79259 9.35375 5.80898C9.71705 5.7223 10.0958 5.67685 10.4851 5.67685C10.8627 5.67685 11.2302 5.71984 11.5833 5.8014C11.6077 5.77022 11.6325 5.73957 11.6576 5.70874C11.6559 5.70627 11.6547 5.70328 11.6534 5.70081C11.5476 5.48395 11.382 5.30091 11.178 5.17338C10.9815 5.05041 10.7484 4.97941 10.4989 4.97941C10.2435 4.97941 10.0062 5.05358 9.80759 5.18095C9.60178 5.31273 9.43639 5.50211 9.33267 5.72688C9.32722 5.73868 9.32054 5.74995 9.31246 5.75964L9.31262 5.7593ZM6.5623 3.9902C6.81083 4.06225 7.05162 4.14981 7.2838 4.25163C7.61686 3.71838 8.07841 3.27339 8.62519 2.96068C9.17831 2.64463 9.81791 2.46405 10.499 2.46405C11.1558 2.46405 11.7748 2.63246 12.3145 2.92789C12.8637 3.22878 13.3304 3.66196 13.6717 4.18398C13.9035 4.08005 14.1441 3.99038 14.3923 3.91586C13.9955 3.25629 13.4356 2.70576 12.7688 2.31926C12.1015 1.93293 11.3263 1.71146 10.499 1.71146C9.66664 1.71146 8.88733 1.93537 8.21749 2.32594C7.53167 2.72584 6.95974 3.30084 6.56253 3.9895L6.5623 3.9902ZM17.6932 7.86519L18.4612 7.43799C18.2197 7.10256 17.8997 6.82175 17.5278 6.61966C17.1158 6.39664 16.6403 6.2698 16.1356 6.27279L16.1347 6.27367C15.6934 6.27367 15.2768 6.36757 14.908 6.53387C14.559 6.69136 14.2525 6.91404 14.0076 7.18429C14.2134 7.39939 14.3999 7.63387 14.5641 7.88386C14.7115 7.66242 14.9131 7.47427 15.152 7.33546C15.4367 7.17004 15.774 7.07402 16.135 7.07402C16.4886 7.07402 16.82 7.16616 17.1008 7.32577C17.3406 7.46177 17.5434 7.64692 17.6933 7.86592L17.6932 7.86519ZM18.756 7.27381L19.5308 6.84273C19.1877 6.3456 18.7156 5.92929 18.1567 5.63263C17.5636 5.31729 16.8724 5.13672 16.1345 5.13672C15.4949 5.13672 14.891 5.2722 14.356 5.51302C13.863 5.73482 13.4275 6.04627 13.076 6.42312C13.3217 6.57797 13.553 6.75396 13.7667 6.94933C14.0409 6.64915 14.3824 6.40215 14.7696 6.22739C15.1812 6.04136 15.6447 5.93689 16.134 5.93689V5.93777C16.6968 5.93477 17.2267 6.07588 17.6853 6.32411C18.1145 6.55647 18.4815 6.88311 18.7554 7.27416L18.756 7.27381ZM19.8252 6.67905L20.5984 6.24884C20.1428 5.58593 19.5123 5.03153 18.7657 4.63921C17.9925 4.23297 17.0939 4.00061 16.1342 4.00061C15.2482 4.00061 14.4146 4.19845 13.6838 4.54866C12.9976 4.87703 12.4012 5.33965 11.9367 5.89775C12.2302 5.98953 12.5125 6.10827 12.7794 6.25131C13.1703 5.816 13.6609 5.4582 14.2191 5.207C14.7974 4.9468 15.4475 4.80041 16.134 4.80041C16.9278 4.80041 17.672 4.99525 18.3123 5.33542C18.9292 5.66326 19.4494 6.12587 19.8245 6.67905L19.8252 6.67905Z" fill="#FC4308"/>
<path d="M30.18 9.83C29.6467 9.83 29.1533 9.74333 28.7 9.57C28.2533 9.39 27.8633 9.14 27.53 8.82C27.2033 8.49333 26.9467 8.11333 26.76 7.68C26.5733 7.24667 26.48 6.77 26.48 6.25C26.48 5.73 26.5733 5.25333 26.76 4.82C26.9467 4.38667 27.2067 4.01 27.54 3.69C27.8733 3.36333 28.2633 3.11333 28.71 2.94C29.1633 2.76 29.6567 2.67 30.19 2.67C30.73 2.67 31.2267 2.76333 31.68 2.95C32.14 3.13 32.53 3.4 32.85 3.76L32.2 4.39C31.9333 4.11 31.6333 3.90333 31.3 3.77C30.9667 3.63 30.61 3.56 30.23 3.56C29.8367 3.56 29.47 3.62667 29.13 3.76C28.7967 3.89333 28.5067 4.08 28.26 4.32C28.0133 4.56 27.82 4.84667 27.68 5.18C27.5467 5.50667 27.48 5.86333 27.48 6.25C27.48 6.63667 27.5467 6.99667 27.68 7.33C27.82 7.65667 28.0133 7.94 28.26 8.18C28.5067 8.42 28.7967 8.60667 29.13 8.74C29.47 8.87333 29.8367 8.94 30.23 8.94C30.61 8.94 30.9667 8.87333 31.3 8.74C31.6333 8.6 31.9333 8.38667 32.2 8.1L32.85 8.73C32.53 9.09 32.14 9.36333 31.68 9.55C31.2267 9.73667 30.7267 9.83 30.18 9.83ZM37.2348 9.75V8.63L37.1848 8.42V6.51C37.1848 6.10333 37.0648 5.79 36.8248 5.57C36.5915 5.34333 36.2381 5.23 35.7648 5.23C35.4515 5.23 35.1448 5.28333 34.8448 5.39C34.5448 5.49 34.2915 5.62667 34.0848 5.8L33.6848 5.08C33.9581 4.86 34.2848 4.69333 34.6648 4.58C35.0515 4.46 35.4548 4.4 35.8748 4.4C36.6015 4.4 37.1615 4.57667 37.5548 4.93C37.9481 5.28333 38.1448 5.82333 38.1448 6.55V9.75H37.2348ZM35.4948 9.81C35.1015 9.81 34.7548 9.74333 34.4548 9.61C34.1615 9.47667 33.9348 9.29333 33.7748 9.06C33.6148 8.82 33.5348 8.55 33.5348 8.25C33.5348 7.96333 33.6015 7.70333 33.7348 7.47C33.8748 7.23667 34.0981 7.05 34.4048 6.91C34.7181 6.77 35.1381 6.7 35.6648 6.7H37.3448V7.39H35.7048C35.2248 7.39 34.9015 7.47 34.7348 7.63C34.5681 7.79 34.4848 7.98333 34.4848 8.21C34.4848 8.47 34.5881 8.68 34.7948 8.84C35.0015 8.99333 35.2881 9.07 35.6548 9.07C36.0148 9.07 36.3281 8.99 36.5948 8.83C36.8681 8.67 37.0648 8.43667 37.1848 8.13L37.3748 8.79C37.2481 9.10333 37.0248 9.35333 36.7048 9.54C36.3848 9.72 35.9815 9.81 35.4948 9.81ZM42.6079 9.81C42.1679 9.81 41.7646 9.71 41.3979 9.51C41.0379 9.30333 40.7479 9 40.5279 8.6C40.3146 8.2 40.2079 7.7 40.2079 7.1C40.2079 6.5 40.3113 6 40.5179 5.6C40.7313 5.2 41.0179 4.9 41.3779 4.7C41.7446 4.5 42.1546 4.4 42.6079 4.4C43.1279 4.4 43.5879 4.51333 43.9879 4.74C44.3879 4.96667 44.7046 5.28333 44.9379 5.69C45.1713 6.09 45.2879 6.56 45.2879 7.1C45.2879 7.64 45.1713 8.11333 44.9379 8.52C44.7046 8.92667 44.3879 9.24333 43.9879 9.47C43.5879 9.69667 43.1279 9.81 42.6079 9.81ZM39.7979 11.69V4.45H40.7179V5.88L40.6579 7.11L40.7579 8.34V11.69H39.7979ZM42.5279 8.97C42.8679 8.97 43.1713 8.89333 43.4379 8.74C43.7113 8.58667 43.9246 8.37 44.0779 8.09C44.2379 7.80333 44.3179 7.47333 44.3179 7.1C44.3179 6.72 44.2379 6.39333 44.0779 6.12C43.9246 5.84 43.7113 5.62333 43.4379 5.47C43.1713 5.31667 42.8679 5.24 42.5279 5.24C42.1946 5.24 41.8913 5.31667 41.6179 5.47C41.3513 5.62333 41.1379 5.84 40.9779 6.12C40.8246 6.39333 40.7479 6.72 40.7479 7.1C40.7479 7.47333 40.8246 7.80333 40.9779 8.09C41.1379 8.37 41.3513 8.58667 41.6179 8.74C41.8913 8.89333 42.1946 8.97 42.5279 8.97ZM48.3109 9.81C47.7776 9.81 47.3642 9.66667 47.0709 9.38C46.7776 9.09333 46.6309 8.68333 46.6309 8.15V3.29H47.5909V8.11C47.5909 8.39667 47.6609 8.61667 47.8009 8.77C47.9476 8.92333 48.1542 9 48.4209 9C48.7209 9 48.9709 8.91667 49.1709 8.75L49.4709 9.44C49.3242 9.56667 49.1476 9.66 48.9409 9.72C48.7409 9.78 48.5309 9.81 48.3109 9.81ZM45.7309 5.24V4.45H49.1109V5.24H45.7309ZM52.7381 9.81C52.2848 9.81 51.8848 9.72667 51.5381 9.56C51.1981 9.39333 50.9315 9.14 50.7381 8.8C50.5515 8.45333 50.4581 8.02 50.4581 7.5V4.45H51.4181V7.39C51.4181 7.91 51.5415 8.3 51.7881 8.56C52.0415 8.82 52.3948 8.95 52.8481 8.95C53.1815 8.95 53.4715 8.88333 53.7181 8.75C53.9648 8.61 54.1548 8.41 54.2881 8.15C54.4215 7.88333 54.4881 7.56333 54.4881 7.19V4.45H55.4481V9.75H54.5381V8.32L54.6881 8.7C54.5148 9.05333 54.2548 9.32667 53.9081 9.52C53.5615 9.71333 53.1715 9.81 52.7381 9.81ZM57.1523 9.75V4.45H58.0723V5.89L57.9823 5.53C58.1289 5.16333 58.3756 4.88333 58.7223 4.69C59.0689 4.49667 59.4956 4.4 60.0023 4.4V5.33C59.9623 5.32333 59.9223 5.32 59.8823 5.32C59.8489 5.32 59.8156 5.32 59.7823 5.32C59.2689 5.32 58.8623 5.47333 58.5623 5.78C58.2623 6.08667 58.1123 6.53 58.1123 7.11V9.75H57.1523ZM63.3732 9.81C62.8066 9.81 62.3066 9.69333 61.8732 9.46C61.4466 9.22667 61.1132 8.90667 60.8732 8.5C60.6399 8.09333 60.5232 7.62667 60.5232 7.1C60.5232 6.57333 60.6366 6.10667 60.8632 5.7C61.0966 5.29333 61.4132 4.97667 61.8132 4.75C62.2199 4.51667 62.6766 4.4 63.1832 4.4C63.6966 4.4 64.1499 4.51333 64.5432 4.74C64.9366 4.96667 65.2432 5.28667 65.4632 5.7C65.6899 6.10667 65.8032 6.58333 65.8032 7.13C65.8032 7.17 65.7999 7.21667 65.7932 7.27C65.7932 7.32333 65.7899 7.37333 65.7832 7.42H61.2732V6.73H65.2832L64.8932 6.97C64.8999 6.63 64.8299 6.32667 64.6832 6.06C64.5366 5.79333 64.3332 5.58667 64.0732 5.44C63.8199 5.28667 63.5232 5.21 63.1832 5.21C62.8499 5.21 62.5532 5.28667 62.2932 5.44C62.0332 5.58667 61.8299 5.79667 61.6832 6.07C61.5366 6.33667 61.4632 6.64333 61.4632 6.99V7.15C61.4632 7.50333 61.5432 7.82 61.7032 8.1C61.8699 8.37333 62.0999 8.58667 62.3932 8.74C62.6866 8.89333 63.0232 8.97 63.4032 8.97C63.7166 8.97 63.9999 8.91667 64.2532 8.81C64.5132 8.70333 64.7399 8.54333 64.9332 8.33L65.4632 8.95C65.2232 9.23 64.9232 9.44333 64.5632 9.59C64.2099 9.73667 63.8132 9.81 63.3732 9.81ZM71.755 9.83C71.2217 9.83 70.7117 9.75 70.225 9.59C69.7383 9.42333 69.355 9.21 69.075 8.95L69.445 8.17C69.7117 8.40333 70.0517 8.59667 70.465 8.75C70.8783 8.90333 71.3083 8.98 71.755 8.98C72.1617 8.98 72.4917 8.93333 72.745 8.84C72.9983 8.74667 73.185 8.62 73.305 8.46C73.425 8.29333 73.485 8.10667 73.485 7.9C73.485 7.66 73.405 7.46667 73.245 7.32C73.0917 7.17333 72.8883 7.05667 72.635 6.97C72.3883 6.87667 72.115 6.79667 71.815 6.73C71.515 6.66333 71.2117 6.58667 70.905 6.5C70.605 6.40667 70.3283 6.29 70.075 6.15C69.8283 6.01 69.6283 5.82333 69.475 5.59C69.3217 5.35 69.245 5.04333 69.245 4.67C69.245 4.31 69.3383 3.98 69.525 3.68C69.7183 3.37333 70.0117 3.13 70.405 2.95C70.805 2.76333 71.3117 2.67 71.925 2.67C72.3317 2.67 72.735 2.72333 73.135 2.83C73.535 2.93667 73.8817 3.09 74.175 3.29L73.845 4.09C73.545 3.89 73.2283 3.74667 72.895 3.66C72.5617 3.56667 72.2383 3.52 71.925 3.52C71.5317 3.52 71.2083 3.57 70.955 3.67C70.7017 3.77 70.515 3.90333 70.395 4.07C70.2817 4.23667 70.225 4.42333 70.225 4.63C70.225 4.87667 70.3017 5.07333 70.455 5.22C70.615 5.36667 70.8183 5.48333 71.065 5.57C71.3183 5.65667 71.595 5.73667 71.895 5.81C72.195 5.87667 72.495 5.95333 72.795 6.04C73.1017 6.12667 73.3783 6.24 73.625 6.38C73.8783 6.52 74.0817 6.70667 74.235 6.94C74.3883 7.17333 74.465 7.47333 74.465 7.84C74.465 8.19333 74.3683 8.52333 74.175 8.83C73.9817 9.13 73.6817 9.37333 73.275 9.56C72.875 9.74 72.3683 9.83 71.755 9.83ZM77.4825 9.81C76.9492 9.81 76.5358 9.66667 76.2425 9.38C75.9492 9.09333 75.8025 8.68333 75.8025 8.15V3.29H76.7625V8.11C76.7625 8.39667 76.8325 8.61667 76.9725 8.77C77.1192 8.92333 77.3258 9 77.5925 9C77.8925 9 78.1425 8.91667 78.3425 8.75L78.6425 9.44C78.4958 9.56667 78.3192 9.66 78.1125 9.72C77.9125 9.78 77.7025 9.81 77.4825 9.81ZM74.9025 5.24V4.45H78.2825V5.24H74.9025ZM81.9097 9.81C81.4564 9.81 81.0564 9.72667 80.7097 9.56C80.3697 9.39333 80.1031 9.14 79.9097 8.8C79.7231 8.45333 79.6297 8.02 79.6297 7.5V4.45H80.5897V7.39C80.5897 7.91 80.7131 8.3 80.9597 8.56C81.2131 8.82 81.5664 8.95 82.0197 8.95C82.3531 8.95 82.6431 8.88333 82.8897 8.75C83.1364 8.61 83.3264 8.41 83.4597 8.15C83.5931 7.88333 83.6597 7.56333 83.6597 7.19V4.45H84.6197V9.75H83.7097V8.32L83.8597 8.7C83.6864 9.05333 83.4264 9.32667 83.0797 9.52C82.7331 9.71333 82.3431 9.81 81.9097 9.81ZM88.5139 9.81C88.0005 9.81 87.5405 9.69667 87.1339 9.47C86.7339 9.24333 86.4172 8.92667 86.1839 8.52C85.9505 8.11333 85.8339 7.64 85.8339 7.1C85.8339 6.56 85.9505 6.09 86.1839 5.69C86.4172 5.28333 86.7339 4.96667 87.1339 4.74C87.5405 4.51333 88.0005 4.4 88.5139 4.4C88.9605 4.4 89.3639 4.5 89.7239 4.7C90.0839 4.9 90.3705 5.2 90.5839 5.6C90.8039 6 90.9139 6.5 90.9139 7.1C90.9139 7.7 90.8072 8.2 90.5939 8.6C90.3872 9 90.1039 9.30333 89.7439 9.51C89.3839 9.71 88.9739 9.81 88.5139 9.81ZM88.5939 8.97C88.9272 8.97 89.2272 8.89333 89.4939 8.74C89.7672 8.58667 89.9805 8.37 90.1339 8.09C90.2939 7.80333 90.3739 7.47333 90.3739 7.1C90.3739 6.72 90.2939 6.39333 90.1339 6.12C89.9805 5.84 89.7672 5.62333 89.4939 5.47C89.2272 5.31667 88.9272 5.24 88.5939 5.24C88.2539 5.24 87.9505 5.31667 87.6839 5.47C87.4172 5.62333 87.2039 5.84 87.0439 6.12C86.8839 6.39333 86.8039 6.72 86.8039 7.1C86.8039 7.47333 86.8839 7.80333 87.0439 8.09C87.2039 8.37 87.4172 8.58667 87.6839 8.74C87.9505 8.89333 88.2539 8.97 88.5939 8.97ZM90.4039 9.75V8.32L90.4639 7.09L90.3639 5.86V2.33H91.3239V9.75H90.4039ZM93.0169 9.75V4.45H93.9769V9.75H93.0169ZM93.4969 3.43C93.3102 3.43 93.1535 3.37 93.0269 3.25C92.9069 3.13 92.8469 2.98333 92.8469 2.81C92.8469 2.63 92.9069 2.48 93.0269 2.36C93.1535 2.24 93.3102 2.18 93.4969 2.18C93.6835 2.18 93.8369 2.24 93.9569 2.36C94.0835 2.47333 94.1469 2.61667 94.1469 2.79C94.1469 2.97 94.0869 3.12333 93.9669 3.25C93.8469 3.37 93.6902 3.43 93.4969 3.43ZM97.9564 9.81C97.4231 9.81 96.9497 9.69333 96.5364 9.46C96.1231 9.22667 95.7964 8.90667 95.5564 8.5C95.3164 8.08667 95.1964 7.62 95.1964 7.1C95.1964 6.57333 95.3164 6.10667 95.5564 5.7C95.7964 5.29333 96.1231 4.97667 96.5364 4.75C96.9497 4.51667 97.4231 4.4 97.9564 4.4C98.4831 4.4 98.9531 4.51667 99.3664 4.75C99.7864 4.97667 100.113 5.29333 100.346 5.7C100.586 6.1 100.706 6.56667 100.706 7.1C100.706 7.62667 100.586 8.09333 100.346 8.5C100.113 8.90667 99.7864 9.22667 99.3664 9.46C98.9531 9.69333 98.4831 9.81 97.9564 9.81ZM97.9564 8.97C98.2964 8.97 98.5997 8.89333 98.8664 8.74C99.1397 8.58667 99.3531 8.37 99.5064 8.09C99.6597 7.80333 99.7364 7.47333 99.7364 7.1C99.7364 6.72 99.6597 6.39333 99.5064 6.12C99.3531 5.84 99.1397 5.62333 98.8664 5.47C98.5997 5.31667 98.2964 5.24 97.9564 5.24C97.6164 5.24 97.3131 5.31667 97.0464 5.47C96.7797 5.62333 96.5664 5.84 96.4064 6.12C96.2464 6.39333 96.1664 6.72 96.1664 7.1C96.1664 7.47333 96.2464 7.80333 96.4064 8.09C96.5664 8.37 96.7797 8.58667 97.0464 8.74C97.3131 8.89333 97.6164 8.97 97.9564 8.97Z" fill="#FC4308"/>
</svg>
