<svg width="41" height="41" viewBox="0 0 41 41" fill="none" xmlns="http://www.w3.org/2000/svg">
<g filter="url(#filter0_d_301_461)">
<mask id="path-1-inside-1_301_461" fill="white">
<path d="M22.9516 1.0484C26.2054 1.0484 29.3862 2.01327 32.0916 3.821C34.7971 5.62872 36.9057 8.19811 38.1509 11.2043C39.3961 14.2104 39.7219 17.5183 39.0871 20.7096C38.4523 23.9009 36.8855 26.8323 34.5847 29.1331C32.2839 31.4339 29.3525 33.0007 26.1612 33.6355C22.9699 34.2703 19.662 33.9445 16.6559 32.6993C13.6497 31.4541 11.0803 29.3455 9.2726 26.64C7.46487 23.9346 6.5 20.7538 6.5 17.5C6.5 13.1368 8.23329 8.95224 11.3186 5.86697C14.4038 2.78169 18.5884 1.0484 22.9516 1.0484Z"/>
</mask>
<path d="M22.9516 1.0484C26.2054 1.0484 29.3862 2.01327 32.0916 3.821C34.7971 5.62872 36.9057 8.19811 38.1509 11.2043C39.3961 14.2104 39.7219 17.5183 39.0871 20.7096C38.4523 23.9009 36.8855 26.8323 34.5847 29.1331C32.2839 31.4339 29.3525 33.0007 26.1612 33.6355C22.9699 34.2703 19.662 33.9445 16.6559 32.6993C13.6497 31.4541 11.0803 29.3455 9.2726 26.64C7.46487 23.9346 6.5 20.7538 6.5 17.5C6.5 13.1368 8.23329 8.95224 11.3186 5.86697C14.4038 2.78169 18.5884 1.0484 22.9516 1.0484Z" fill="#FC4308" fill-opacity="0.1" shape-rendering="crispEdges"/>
<path d="M6.5 17.5H6.13043H6.5ZM22.9516 1.41797C26.1323 1.41797 29.2416 2.36116 31.8863 4.12828L32.297 3.51372C29.5307 1.66538 26.2785 0.678836 22.9516 0.678836V1.41797ZM31.8863 4.12828C34.531 5.8954 36.5923 8.40707 37.8095 11.3457L38.4924 11.0628C37.2192 7.98916 35.0632 5.36205 32.297 3.51372L31.8863 4.12828ZM37.8095 11.3457C39.0267 14.2843 39.3452 17.5179 38.7246 20.6375L39.4496 20.7817C40.0986 17.5187 39.7655 14.1365 38.4924 11.0628L37.8095 11.3457ZM38.7246 20.6375C38.1041 23.7571 36.5725 26.6226 34.3233 28.8717L34.846 29.3944C37.1985 27.0419 38.8005 24.0447 39.4496 20.7817L38.7246 20.6375ZM34.3233 28.8717C32.0742 31.1209 29.2087 32.6525 26.0891 33.273L26.2333 33.998C29.4963 33.3489 32.4935 31.7469 34.846 29.3944L34.3233 28.8717ZM26.0891 33.273C22.9695 33.8936 19.7359 33.5751 16.7973 32.3579L16.5144 33.0408C19.5881 34.3139 22.9703 34.647 26.2333 33.998L26.0891 33.273ZM16.7973 32.3579C13.8587 31.1407 11.347 29.0794 9.57988 26.4347L8.96531 26.8454C10.8136 29.6116 13.4408 31.7676 16.5144 33.0408L16.7973 32.3579ZM9.57988 26.4347C7.81276 23.79 6.86957 20.6807 6.86957 17.5H6.13043C6.13043 20.8269 7.11698 24.0791 8.96531 26.8454L9.57988 26.4347ZM6.86957 17.5C6.86957 13.2348 8.56392 9.14426 11.5799 6.12829L11.0572 5.60564C7.90266 8.76023 6.13043 13.0388 6.13043 17.5H6.86957ZM11.5799 6.12829C14.5959 3.11232 18.6864 1.41797 22.9516 1.41797V0.678836C18.4904 0.678836 14.2118 2.45106 11.0572 5.60564L11.5799 6.12829Z" fill="#FC4308" mask="url(#path-1-inside-1_301_461)"/>
</g>
<path d="M27.5085 18.141C28.0012 17.8565 28.0012 17.1453 27.5085 16.8608L21.2259 13.2335C20.7331 12.949 20.1172 13.3046 20.1172 13.8736L20.1172 21.1281C20.1172 21.6971 20.7331 22.0527 21.2259 21.7682L27.5085 18.141Z" fill="#FC4308"/>
<defs>
<filter id="filter0_d_301_461" x="0.217391" y="0.678836" width="40.2946" height="40.2946" filterUnits="userSpaceOnUse" color-interpolation-filters="sRGB">
<feFlood flood-opacity="0" result="BackgroundImageFix"/>
<feColorMatrix in="SourceAlpha" type="matrix" values="0 0 0 0 0 0 0 0 0 0 0 0 0 0 0 0 0 0 127 0" result="hardAlpha"/>
<feOffset dx="-2.58696" dy="3.32609"/>
<feGaussianBlur stdDeviation="1.84783"/>
<feComposite in2="hardAlpha" operator="out"/>
<feColorMatrix type="matrix" values="0 0 0 0 0 0 0 0 0 0 0 0 0 0 0 0 0 0 0.05 0"/>
<feBlend mode="normal" in2="BackgroundImageFix" result="effect1_dropShadow_301_461"/>
<feBlend mode="normal" in="SourceGraphic" in2="effect1_dropShadow_301_461" result="shape"/>
</filter>
</defs>
</svg>
